<svg width="24" height="33" viewBox="0 0 24 33" fill="none" xmlns="http://www.w3.org/2000/svg">
<path d="M11.9567 0.333344C5.5067 0.333344 0.290039 5.55001 0.290039 12C0.290039 18.95 7.6567 28.5333 10.69 32.1833C11.3567 32.9833 12.5734 32.9833 13.24 32.1833C16.2567 28.5333 23.6234 18.95 23.6234 12C23.6234 5.55001 18.4067 0.333344 11.9567 0.333344ZM11.9567 16.1667C10.8516 16.1667 9.79183 15.7277 9.01043 14.9463C8.22902 14.1649 7.79004 13.1051 7.79004 12C7.79004 10.8949 8.22902 9.83513 9.01043 9.05373C9.79183 8.27233 10.8516 7.83334 11.9567 7.83334C13.0618 7.83334 14.1216 8.27233 14.903 9.05373C15.6844 9.83513 16.1234 10.8949 16.1234 12C16.1234 13.1051 15.6844 14.1649 14.903 14.9463C14.1216 15.7277 13.0618 16.1667 11.9567 16.1667Z" fill="url(#paint0_linear_256_213)"/>
<defs>
<linearGradient id="paint0_linear_256_213" x1="11.9567" y1="0.333344" x2="11.9567" y2="32.7833" gradientUnits="userSpaceOnUse">
<stop stop-color="#382915"/>
<stop offset="0.0001" stop-color="#3C6FD1"/>
<stop offset="1" stop-color="#7CA9FF"/>
</linearGradient>
</defs>
</svg>
