<svg width="31" height="30" viewBox="0 0 31 30" fill="none" xmlns="http://www.w3.org/2000/svg">
<path d="M20.9567 26.6667L10.9567 23.15V3.33333L20.9567 6.85M30.1233 0H29.8567L20.9567 3.5L10.9567 0L1.55666 3.16667C1.20666 3.28333 0.956665 3.58333 0.956665 3.96667V29.1667C0.956665 29.3877 1.04446 29.5996 1.20074 29.7559C1.35702 29.9122 1.56898 30 1.79 30C1.87333 30 1.97333 30 2.05667 29.95L10.9567 26.5L20.9567 30L30.3567 26.8333C30.7067 26.6667 30.9567 26.4167 30.9567 26.0333V0.833333C30.9567 0.61232 30.8689 0.400358 30.7126 0.244078C30.5563 0.0877975 30.3443 0 30.1233 0Z" fill="url(#paint0_linear_256_230)"/>
<defs>
<linearGradient id="paint0_linear_256_230" x1="15.9567" y1="0" x2="15.9567" y2="30" gradientUnits="userSpaceOnUse">
<stop stop-color="#382915"/>
<stop offset="0.0001" stop-color="#3C6FD1"/>
<stop offset="1" stop-color="#7CA9FF"/>
</linearGradient>
</defs>
</svg>
