<svg width="18" height="10" viewBox="0 0 18 10" fill="none" xmlns="http://www.w3.org/2000/svg">
<path fill-rule="evenodd" clip-rule="evenodd" d="M0.600098 1.4C0.600098 1.08174 0.726526 0.776513 0.951569 0.551469C1.17661 0.326425 1.48184 0.199997 1.8001 0.199997H16.2001C16.5184 0.199997 16.8236 0.326425 17.0486 0.551469C17.2737 0.776513 17.4001 1.08174 17.4001 1.4C17.4001 1.71826 17.2737 2.02348 17.0486 2.24852C16.8236 2.47357 16.5184 2.6 16.2001 2.6H1.8001C1.48184 2.6 1.17661 2.47357 0.951569 2.24852C0.726526 2.02348 0.600098 1.71826 0.600098 1.4ZM0.600098 8.6C0.600098 8.28174 0.726526 7.97651 0.951569 7.75147C1.17661 7.52642 1.48184 7.4 1.8001 7.4H16.2001C16.5184 7.4 16.8236 7.52642 17.0486 7.75147C17.2737 7.97651 17.4001 8.28174 17.4001 8.6C17.4001 8.91826 17.2737 9.22348 17.0486 9.44852C16.8236 9.67357 16.5184 9.8 16.2001 9.8H1.8001C1.48184 9.8 1.17661 9.67357 0.951569 9.44852C0.726526 9.22348 0.600098 8.91826 0.600098 8.6Z" fill="white"/>
</svg>
