<svg width="24" height="24" viewBox="0 0 24 24" fill="none" xmlns="http://www.w3.org/2000/svg">
<path d="M-5.72205e-05 12C-5.72205e-05 11.2247 0.668848 9.80812 2.13791 8.53125C2.97644 7.81 3.93207 7.23738 4.96354 6.83812C4.99784 6.82529 5.03569 6.82567 5.06974 6.83918C5.10378 6.8527 5.13159 6.87838 5.14776 6.91125C5.15479 6.92484 5.16182 6.93797 5.16979 6.95156L5.61932 7.69687C6.3774 9.00592 6.77633 10.4919 6.77576 12.0047C6.77518 13.5174 6.37512 15.0031 5.61604 16.3116L5.60525 16.3298L5.19557 17.0798C5.17383 17.1197 5.13838 17.1503 5.0958 17.166C5.05322 17.1817 5.00639 17.1814 4.964 17.1652C1.51729 15.8166 -5.72205e-05 13.1948 -5.72205e-05 12ZM4.40244 11.9934C4.55777 12.0137 4.71557 11.9849 4.85367 11.911C4.99178 11.837 5.10327 11.7217 5.1725 11.5812C5.24173 11.4407 5.26521 11.282 5.23966 11.1274C5.21411 10.9729 5.1408 10.8302 5.03003 10.7194C4.91926 10.6087 4.77659 10.5354 4.62203 10.5098C4.46748 10.4843 4.3088 10.5077 4.16827 10.577C4.02775 10.6462 3.91242 10.7577 3.83849 10.8958C3.76455 11.0339 3.73572 11.1917 3.75604 11.347C3.77748 11.511 3.85247 11.6632 3.96937 11.7801C4.08627 11.897 4.23852 11.972 4.40244 11.9934Z" fill="white"/>
<path d="M8.27575 12C8.2764 10.2217 7.80608 8.47502 6.91263 6.9375L6.907 6.92765L6.69044 6.56812C6.67479 6.54251 6.66552 6.51351 6.6634 6.48357C6.66129 6.45362 6.66639 6.42361 6.67829 6.39605C6.69019 6.36849 6.70853 6.34419 6.73177 6.32519C6.75501 6.30619 6.78247 6.29305 6.81185 6.28687C7.41866 6.15995 8.03359 6.07553 8.65216 6.03422C8.7251 6.02951 8.79504 6.00342 8.85325 5.95922C9.757 5.27203 11.5486 4.07015 13.3748 3.76125C13.4996 3.74057 13.6276 3.75179 13.7469 3.79387C13.8662 3.83595 13.9729 3.90752 14.0571 4.00192C14.1413 4.09633 14.2003 4.21049 14.2285 4.3338C14.2567 4.45711 14.2533 4.58555 14.2186 4.70719L13.7208 6.44953C13.7078 6.49468 13.7123 6.54305 13.7333 6.58506C13.7543 6.62707 13.7903 6.65967 13.8342 6.6764C15.5615 7.31812 17.0493 8.49281 18.1345 9.38812C18.2009 9.44248 18.284 9.47242 18.3698 9.47293C18.4556 9.47344 18.539 9.4445 18.6061 9.39094C18.7536 9.27375 18.905 9.15828 19.0603 9.04453C20.9184 7.6875 23.1014 7.50891 23.1933 7.50234C23.3099 7.49353 23.427 7.51213 23.5352 7.55664C23.6434 7.60116 23.7396 7.67037 23.8163 7.75874C23.8929 7.8471 23.9479 7.95217 23.9767 8.06555C24.0055 8.17893 24.0074 8.29748 23.9822 8.41172C23.9625 8.50219 23.5514 10.3191 22.4962 11.7684C22.4487 11.8334 22.4231 11.9118 22.4231 11.9923C22.4231 12.0727 22.4487 12.1511 22.4962 12.2161C23.5514 13.665 23.9625 15.4823 23.9822 15.5728C24.0074 15.687 24.0055 15.8056 23.9767 15.919C23.9479 16.0324 23.8929 16.1374 23.8163 16.2258C23.7396 16.3142 23.6434 16.3834 23.5352 16.4279C23.427 16.4724 23.3099 16.491 23.1933 16.4822C23.0995 16.4756 20.9184 16.2947 19.0626 14.9409C18.9111 14.8297 18.7631 14.7169 18.6187 14.6025C18.5516 14.549 18.4682 14.5201 18.3824 14.5207C18.2965 14.5213 18.2135 14.5514 18.1472 14.6058C17.0573 15.5053 15.5667 16.6814 13.8347 17.3245C13.7909 17.3413 13.7549 17.3738 13.7339 17.4157C13.7129 17.4576 13.7084 17.5058 13.7212 17.5509L14.2209 19.2937C14.2557 19.4154 14.2591 19.5438 14.2309 19.6671C14.2026 19.7904 14.1437 19.9046 14.0595 19.999C13.9753 20.0934 13.8685 20.165 13.7493 20.2071C13.63 20.2491 13.502 20.2604 13.3772 20.2397C12.5728 20.1037 10.9453 19.6369 8.87481 18.0445C8.81567 17.9994 8.74464 17.9725 8.67044 17.9672C8.05265 17.9267 7.43838 17.8437 6.832 17.7187C6.80338 17.7127 6.77656 17.7001 6.75369 17.6819C6.73081 17.6637 6.71252 17.6404 6.70027 17.6138C6.68801 17.5872 6.68214 17.5582 6.68312 17.529C6.6841 17.4997 6.69191 17.4711 6.70591 17.4455L6.91732 17.0569C7.80815 15.5205 8.27681 13.7759 8.27575 12Z" fill="white"/>
</svg>
