<svg width="15" height="10" viewBox="0 0 15 10" fill="none" xmlns="http://www.w3.org/2000/svg">
<path d="M1.12283 0H6.38356C6.66261 0 6.93022 0.105357 7.12754 0.292893C7.32486 0.48043 7.43571 0.734784 7.43571 1C7.43571 1.26522 7.32486 1.51957 7.12754 1.70711C6.93022 1.89464 6.66261 2 6.38356 2H1.12283C0.843779 2 0.576161 1.89464 0.378846 1.70711C0.18153 1.51957 0.0706787 1.26522 0.0706787 1C0.0706787 0.734784 0.18153 0.48043 0.378846 0.292893C0.576161 0.105357 0.843779 0 1.12283 0ZM8.48785 8H13.7486C14.0276 8 14.2953 8.10536 14.4926 8.29289C14.6899 8.48043 14.8007 8.73478 14.8007 9C14.8007 9.26522 14.6899 9.51957 14.4926 9.70711C14.2953 9.89464 14.0276 10 13.7486 10H8.48785C8.20881 10 7.94119 9.89464 7.74387 9.70711C7.54656 9.51957 7.43571 9.26522 7.43571 9C7.43571 8.73478 7.54656 8.48043 7.74387 8.29289C7.94119 8.10536 8.20881 8 8.48785 8ZM1.12283 4H13.7486C14.0276 4 14.2953 4.10536 14.4926 4.29289C14.6899 4.48043 14.8007 4.73478 14.8007 5C14.8007 5.26522 14.6899 5.51957 14.4926 5.70711C14.2953 5.89464 14.0276 6 13.7486 6H1.12283C0.843779 6 0.576161 5.89464 0.378846 5.70711C0.18153 5.51957 0.0706787 5.26522 0.0706787 5C0.0706787 4.73478 0.18153 4.48043 0.378846 4.29289C0.576161 4.10536 0.843779 4 1.12283 4Z" fill="#382915"/>
</svg>
