<svg width="25" height="25" viewBox="0 0 25 25" fill="none" xmlns="http://www.w3.org/2000/svg">
<g clip-path="url(#clip0_332_247)">
<path d="M0.953434 12.4082C0.953434 11.6329 1.62234 10.2163 3.0914 8.93945C3.92993 8.2182 4.88556 7.64558 5.91703 7.24633C5.95134 7.2335 5.98919 7.23387 6.02323 7.24739C6.05727 7.2609 6.08508 7.28659 6.10125 7.31945C6.10828 7.33305 6.11531 7.34617 6.12328 7.35977L6.57281 8.10508C7.33089 9.41412 7.72982 10.9002 7.72925 12.4129C7.72867 13.9256 7.32861 15.4113 6.56953 16.7198L6.55875 16.738L6.14906 17.488C6.12732 17.5279 6.09187 17.5585 6.04929 17.5742C6.00671 17.5899 5.95988 17.5896 5.9175 17.5734C2.47078 16.2248 0.953434 13.603 0.953434 12.4082ZM5.35593 12.4016C5.51126 12.422 5.66906 12.3931 5.80717 12.3192C5.94527 12.2453 6.05676 12.1299 6.12599 11.9894C6.19522 11.8489 6.2187 11.6902 6.19315 11.5356C6.1676 11.3811 6.09429 11.2384 5.98352 11.1276C5.87275 11.0169 5.73008 10.9436 5.57552 10.918C5.42097 10.8925 5.26229 10.916 5.12176 10.9852C4.98124 11.0544 4.86591 11.1659 4.79198 11.304C4.71805 11.4421 4.68921 11.5999 4.70953 11.7552C4.73097 11.9192 4.80597 12.0714 4.92286 12.1883C5.03976 12.3052 5.19201 12.3802 5.35593 12.4016Z" fill="url(#paint0_linear_332_247)"/>
<path d="M9.22912 12.4082C9.22977 10.6299 8.75945 8.88322 7.866 7.3457L7.86037 7.33586L7.64381 6.97633C7.62816 6.95071 7.61889 6.92172 7.61677 6.89177C7.61466 6.86183 7.61976 6.83182 7.63166 6.80426C7.64355 6.7767 7.6619 6.75239 7.68514 6.7334C7.70838 6.7144 7.73584 6.70126 7.76522 6.69508C8.37203 6.56816 8.98696 6.48373 9.60553 6.44242C9.67847 6.43771 9.74841 6.41163 9.80662 6.36742C10.7104 5.68023 12.5019 4.47836 14.3282 4.16945C14.453 4.14877 14.581 4.16 14.7003 4.20208C14.8196 4.24416 14.9263 4.31573 15.0105 4.41013C15.0947 4.50453 15.1536 4.6187 15.1819 4.742C15.2101 4.86531 15.2067 4.99376 15.1719 5.11539L14.6741 6.85773C14.6612 6.90289 14.6656 6.95125 14.6867 6.99327C14.7077 7.03528 14.7437 7.06788 14.7876 7.08461C16.5149 7.72633 18.0027 8.90102 19.0879 9.79633C19.1543 9.85069 19.2373 9.88062 19.3232 9.88113C19.409 9.88165 19.4924 9.8527 19.5594 9.79914C19.7069 9.68195 19.8583 9.56648 20.0137 9.45273C21.8718 8.0957 24.0547 7.91711 24.1466 7.91055C24.2633 7.90173 24.3804 7.92033 24.4885 7.96485C24.5967 8.00937 24.693 8.07858 24.7697 8.16694C24.8463 8.2553 24.9012 8.36038 24.93 8.47376C24.9588 8.58714 24.9607 8.70568 24.9355 8.81992C24.9158 8.91039 24.5047 10.7273 23.4496 12.1766C23.4021 12.2416 23.3765 12.32 23.3765 12.4005C23.3765 12.4809 23.4021 12.5593 23.4496 12.6243C24.5047 14.0732 24.9158 15.8905 24.9355 15.981C24.9607 16.0953 24.9588 16.2138 24.93 16.3272C24.9012 16.4406 24.8463 16.5456 24.7697 16.634C24.693 16.7224 24.5967 16.7916 24.4885 16.8361C24.3804 16.8806 24.2633 16.8992 24.1466 16.8904C24.0529 16.8838 21.8718 16.7029 20.016 15.3491C19.8644 15.2379 19.7165 15.1251 19.5721 15.0107C19.505 14.9572 19.4216 14.9283 19.3357 14.9289C19.2499 14.9295 19.1669 14.9596 19.1005 15.014C18.0107 15.9135 16.5201 17.0896 14.788 17.7327C14.7442 17.7495 14.7083 17.782 14.6873 17.8239C14.6663 17.8658 14.6618 17.9141 14.6746 17.9591L15.1743 19.702C15.209 19.8236 15.2124 19.952 15.1842 20.0753C15.156 20.1986 15.097 20.3128 15.0128 20.4072C14.9286 20.5016 14.8219 20.5732 14.7026 20.6153C14.5833 20.6573 14.4553 20.6686 14.3305 20.6479C13.5262 20.512 11.8987 20.0451 9.82818 18.4527C9.76904 18.4076 9.69801 18.3807 9.62381 18.3754C9.00602 18.3349 8.39175 18.2519 7.78537 18.127C7.75675 18.1209 7.72993 18.1083 7.70706 18.0901C7.68418 18.0719 7.66589 18.0486 7.65364 18.022C7.64138 17.9955 7.63551 17.9664 7.63649 17.9372C7.63747 17.9079 7.64528 17.8793 7.65928 17.8537L7.87069 17.4651C8.76152 15.9287 9.23018 14.1841 9.22912 12.4082Z" fill="url(#paint1_linear_332_247)"/>
</g>
<defs>
<linearGradient id="paint0_linear_332_247" x1="4.34134" y1="7.23697" x2="4.34134" y2="17.5857" gradientUnits="userSpaceOnUse">
<stop stop-color="#382915"/>
<stop offset="0.0001" stop-color="#3C6FD1"/>
<stop offset="1" stop-color="#7CA9FF"/>
</linearGradient>
<linearGradient id="paint1_linear_332_247" x1="16.2847" y1="4.15936" x2="16.2847" y2="20.658" gradientUnits="userSpaceOnUse">
<stop stop-color="#382915"/>
<stop offset="0.0001" stop-color="#3C6FD1"/>
<stop offset="1" stop-color="#7CA9FF"/>
</linearGradient>
<clipPath id="clip0_332_247">
<rect width="24" height="24" fill="white" transform="matrix(-1 0 0 1 24.9534 0.408203)"/>
</clipPath>
</defs>
</svg>
