<svg width="25" height="25" viewBox="0 0 25 25" fill="none" xmlns="http://www.w3.org/2000/svg">
<g clip-path="url(#clip0_332_253)">
<path d="M13.7034 7.5332C16.0804 8.10555 18.1167 9.98523 19.3424 10.9752C19.6961 10.6476 20.0687 10.3411 20.4585 10.0574C22.1629 8.81242 24.2034 8.6582 24.2034 8.6582C24.2034 8.6582 23.6704 11.0737 22.2646 12.4002C23.6704 13.7273 24.2034 16.1427 24.2034 16.1427C24.2034 16.1427 22.1629 15.9885 20.4585 14.7435C20.072 14.4623 19.7025 14.1585 19.3518 13.8337C18.1284 14.8246 16.0827 16.709 13.7034 17.2832L14.4534 19.9082C12.6051 19.5955 10.7568 18.2437 10.0134 17.6465C3.95337 17.377 1.70337 13.4863 1.70337 12.4082C1.70337 11.377 3.95337 7.43945 9.99509 7.17086C10.7259 6.58539 12.5896 5.2232 14.4534 4.9082L13.7034 7.5332Z" stroke="#382915" stroke-width="1.5" stroke-linejoin="round"/>
<path d="M5.45337 12.4077C5.03916 12.4077 4.70337 12.0719 4.70337 11.6577C4.70337 11.2435 5.03916 10.9077 5.45337 10.9077C5.86758 10.9077 6.20337 11.2435 6.20337 11.6577C6.20337 12.0719 5.86758 12.4077 5.45337 12.4077Z" fill="#382915"/>
<path d="M7.21731 17.0957C8.04373 15.6717 8.479 14.0546 8.479 12.4082C8.479 10.7618 8.04373 9.14466 7.21731 7.7207" stroke="#382915" stroke-width="1.5" stroke-miterlimit="20" stroke-linecap="round"/>
</g>
<defs>
<clipPath id="clip0_332_253">
<rect width="24" height="24" fill="white" transform="matrix(-1 0 0 1 24.9534 0.408203)"/>
</clipPath>
</defs>
</svg>
