<svg width="38" height="35" viewBox="0 0 38 35" fill="none" xmlns="http://www.w3.org/2000/svg">
<path d="M9.24863 20.7416C9.68682 20.7416 10.1071 20.9171 10.4169 21.2297C10.7268 21.5423 10.9008 21.9662 10.9008 22.4082C10.9008 22.8502 10.7268 23.2742 10.4169 23.5867C10.1071 23.8993 9.68682 24.0749 9.24863 24.0749C8.16377 24.0749 7.08953 23.8593 6.08725 23.4405C5.08497 23.0218 4.17427 22.4079 3.40716 21.6341C1.85791 20.0713 0.987549 17.9517 0.987549 15.7415C0.987549 13.5314 1.85791 11.4118 3.40716 9.84899C4.95642 8.28619 7.05765 7.40821 9.24863 7.40821C10.9008 3.49155 14.7009 0.741547 19.1619 0.741547C24.829 0.741547 29.4717 5.17488 29.9013 10.7915L30.7274 10.7415C32.4802 10.7415 34.1612 11.4439 35.4006 12.6942C36.64 13.9444 37.3363 15.6401 37.3363 17.4082C37.3363 19.1763 36.64 20.872 35.4006 22.1223C34.1612 23.3725 32.4802 24.0749 30.7274 24.0749H29.0752C28.637 24.0749 28.2168 23.8993 27.9069 23.5867C27.5971 23.2742 27.423 22.8502 27.423 22.4082C27.423 21.9662 27.5971 21.5423 27.9069 21.2297C28.2168 20.9171 28.637 20.7416 29.0752 20.7416H30.7274C31.6038 20.7416 32.4443 20.3904 33.064 19.7652C33.6837 19.1401 34.0319 18.2923 34.0319 17.4082C34.0319 16.5242 33.6837 15.6763 33.064 15.0512C32.4443 14.4261 31.6038 14.0749 30.7274 14.0749H27.423V12.4082C27.423 10.1981 26.5526 8.07846 25.0034 6.51566C23.4541 4.95285 21.3529 4.07488 19.1619 4.07488C15.0314 4.07488 11.6443 7.10821 11 11.0582C10.4547 10.8582 9.85995 10.7415 9.24863 10.7415C7.93404 10.7415 6.6733 11.2683 5.74375 12.206C4.8142 13.1437 4.29198 14.4155 4.29198 15.7415C4.29198 17.0676 4.8142 18.3394 5.74375 19.2771C6.6733 20.2148 7.93404 20.7416 9.24863 20.7416ZM15.8575 27.4082C16.7339 27.4082 17.5744 27.7594 18.1941 28.3845C18.8138 29.0097 19.1619 29.8575 19.1619 30.7416C19.1619 31.6256 18.8138 32.4735 18.1941 33.0986C17.5744 33.7237 16.7339 34.0749 15.8575 34.0749C14.9811 34.0749 14.1406 33.7237 13.5209 33.0986C12.9012 32.4735 12.5531 31.6256 12.5531 30.7416C12.5531 29.8575 12.9012 29.0097 13.5209 28.3845C14.1406 27.7594 14.9811 27.4082 15.8575 27.4082ZM23.2925 24.0749C23.9498 24.0749 24.5801 24.3383 25.0449 24.8071C25.5097 25.276 25.7708 25.9118 25.7708 26.5749C25.7708 27.2379 25.5097 27.8738 25.0449 28.3427C24.5801 28.8115 23.9498 29.0749 23.2925 29.0749C22.6352 29.0749 22.0048 28.8115 21.54 28.3427C21.0752 27.8738 20.8141 27.2379 20.8141 26.5749C20.8141 25.9118 21.0752 25.276 21.54 24.8071C22.0048 24.3383 22.6352 24.0749 23.2925 24.0749ZM16.6836 17.4082C17.3409 17.4082 17.9713 17.6716 18.436 18.1404C18.9008 18.6093 19.1619 19.2452 19.1619 19.9082C19.1619 20.5713 18.9008 21.2071 18.436 21.676C17.9713 22.1448 17.3409 22.4082 16.6836 22.4082C16.0263 22.4082 15.3959 22.1448 14.9312 21.676C14.4664 21.2071 14.2053 20.5713 14.2053 19.9082C14.2053 19.2452 14.4664 18.6093 14.9312 18.1404C15.3959 17.6716 16.0263 17.4082 16.6836 17.4082Z" fill="url(#paint0_linear_328_100)"/>
<defs>
<linearGradient id="paint0_linear_328_100" x1="19.1619" y1="0.741547" x2="19.1619" y2="34.0749" gradientUnits="userSpaceOnUse">
<stop stop-color="#382915"/>
<stop offset="0.0001" stop-color="#3C6FD1"/>
<stop offset="1" stop-color="#7CA9FF"/>
</linearGradient>
</defs>
</svg>
