<svg width="21" height="37" viewBox="0 0 21 37" fill="none" xmlns="http://www.w3.org/2000/svg">
<path d="M12.3837 23.8749V12.5749C12.3837 12.1328 12.2097 11.7089 11.8998 11.3963C11.59 11.0838 11.1697 10.9082 10.7315 10.9082C10.2933 10.9082 9.87308 11.0838 9.56322 11.3963C9.25338 11.7089 9.0793 12.1328 9.0793 12.5749V23.8749C8.57988 24.1657 8.1646 24.5833 7.87475 25.0862C7.5849 25.5891 7.43057 26.1598 7.42709 26.7415C7.42709 27.6256 7.77523 28.4734 8.39493 29.0986C9.01463 29.7237 9.85513 30.0749 10.7315 30.0749C11.6079 30.0749 12.4484 29.7237 13.0681 29.0986C13.6878 28.4734 14.0359 27.6256 14.0359 26.7415C14.0325 26.1598 13.8781 25.5891 13.5883 25.0862C13.2984 24.5833 12.8832 24.1657 12.3837 23.8749ZM18.1665 20.0749V7.57486C18.1665 5.58574 17.3832 3.67808 15.9888 2.27156C14.5945 0.865036 12.7034 0.0748596 10.7315 0.0748596C8.75964 0.0748596 6.86853 0.865036 5.4742 2.27156C4.07987 3.67808 3.29655 5.58574 3.29655 7.57486V20.0749C2.15461 21.3802 1.37028 22.9637 1.02114 24.6686C0.671998 26.3735 0.77015 28.1409 1.30588 29.7958C1.84162 31.4507 2.79637 32.9359 4.0757 34.1044C5.35503 35.2729 6.9146 36.0843 8.60016 36.4582C9.30035 36.6192 10.0139 36.714 10.7315 36.7415C12.6491 36.7505 14.5282 36.1983 16.1409 35.1518C17.7536 34.1052 19.0309 32.6093 19.8178 30.8453C20.6047 29.0813 20.8676 27.1249 20.5745 25.2132C20.2814 23.3015 19.4449 21.5167 18.1665 20.0749ZM14.8621 31.8582C13.5475 33.034 11.8237 33.6348 10.0699 33.5286C8.31619 33.4223 6.67611 32.6176 5.51052 31.2915C4.34492 29.9654 3.74928 28.2266 3.85463 26.4575C3.95998 24.6884 4.75769 23.034 6.07227 21.8582C6.22838 21.7038 6.35258 21.5198 6.43766 21.3166C6.52275 21.1135 6.56703 20.8954 6.56793 20.6749V7.57486C6.56793 6.46979 7.00311 5.40998 7.77774 4.62858C8.55237 3.84718 9.60299 3.40819 10.6985 3.40819C11.794 3.40819 12.8446 3.84718 13.6192 4.62858C14.3938 5.40998 14.829 6.46979 14.829 7.57486V20.8082C14.8299 21.0287 14.8742 21.2468 14.9593 21.45C15.0444 21.6531 15.1686 21.8372 15.3247 21.9915C16 22.6497 16.5286 23.4454 16.8752 24.3257C17.2217 25.2061 17.3783 26.1508 17.3346 27.097C17.2908 28.0432 17.0476 28.9692 16.6213 29.8131C16.195 30.6571 15.5952 31.3997 14.8621 31.9915V31.8582Z" fill="url(#paint0_linear_328_122)"/>
<defs>
<linearGradient id="paint0_linear_328_122" x1="10.7536" y1="0.0748596" x2="10.7536" y2="36.7416" gradientUnits="userSpaceOnUse">
<stop stop-color="#382915"/>
<stop offset="0.0001" stop-color="#3C6FD1"/>
<stop offset="1" stop-color="#7CA9FF"/>
</linearGradient>
</defs>
</svg>
