<svg width="32" height="33" viewBox="0 0 32 33" fill="none" xmlns="http://www.w3.org/2000/svg">
<path d="M17.3836 3.07486L15.7313 7.96486L14.0791 3.07486C13.99 2.81001 13.9648 2.52757 14.0055 2.25092C14.0462 1.97428 14.1517 1.7114 14.3132 1.48408C14.4747 1.25676 14.6876 1.07153 14.9342 0.943756C15.1808 0.815979 15.4541 0.749329 15.7313 0.749329C16.0086 0.749329 16.2819 0.815979 16.5285 0.943756C16.7751 1.07153 16.988 1.25676 17.1495 1.48408C17.311 1.7114 17.4165 1.97428 17.4572 2.25092C17.4979 2.52757 17.4726 2.81001 17.3836 3.07486ZM2.51362 14.7415L7.36122 16.4082L2.51362 18.0749C2.25107 18.1647 1.97107 18.1902 1.69683 18.1491C1.42258 18.1081 1.16198 18.0017 0.936633 17.8387C0.711281 17.6758 0.527662 17.4611 0.400993 17.2123C0.274324 16.9635 0.208252 16.6879 0.208252 16.4082C0.208252 16.1285 0.274324 15.8529 0.400993 15.6041C0.527662 15.3553 0.711281 15.1406 0.936633 14.9776C1.16198 14.8147 1.42258 14.7083 1.69683 14.6673C1.97107 14.6262 2.25107 14.6517 2.51362 14.7415ZM14.0791 29.7415L15.7313 24.8515L17.3836 29.7415C17.4726 30.0064 17.4979 30.2888 17.4572 30.5655C17.4165 30.8421 17.311 31.105 17.1495 31.3323C16.988 31.5596 16.7751 31.7449 16.5285 31.8726C16.2819 32.0004 16.0086 32.0671 15.7313 32.0671C15.4541 32.0671 15.1808 32.0004 14.9342 31.8726C14.6876 31.7449 14.4747 31.5596 14.3132 31.3323C14.1517 31.105 14.0462 30.8421 14.0055 30.5655C13.9648 30.2888 13.99 30.0064 14.0791 29.7415ZM28.9491 18.0715L24.1015 16.4049L28.9491 14.7382C29.2116 14.6483 29.4916 14.6229 29.7659 14.6639C30.0401 14.705 30.3007 14.8114 30.5261 14.9743C30.7514 15.1372 30.935 15.352 31.0617 15.6008C31.1884 15.8495 31.2544 16.1252 31.2544 16.4049C31.2544 16.6845 31.1884 16.9602 31.0617 17.209C30.935 17.4577 30.7514 17.6725 30.5261 17.8354C30.3007 17.9983 30.0401 18.1047 29.7659 18.1458C29.4916 18.1868 29.2116 18.1614 28.9491 18.0715ZM7.55288 5.80152L9.81145 10.4365L5.21664 8.15819C4.96694 8.03494 4.75002 7.85335 4.5839 7.6285C4.41779 7.40366 4.30728 7.14206 4.26158 6.86545C4.21587 6.58885 4.23628 6.30524 4.32111 6.0382C4.40595 5.77115 4.55275 5.5284 4.74932 5.33011C4.94588 5.13182 5.18653 4.98374 5.45126 4.89816C5.71599 4.81259 5.99714 4.792 6.27135 4.83811C6.54555 4.88421 6.80488 4.99568 7.02778 5.16325C7.25068 5.33082 7.4307 5.54964 7.55288 5.80152ZM5.21664 24.6565L9.81145 22.3782L7.55288 27.0132C7.4307 27.2651 7.25068 27.4839 7.02778 27.6515C6.80488 27.819 6.54555 27.9305 6.27135 27.9766C5.99714 28.0227 5.71599 28.0021 5.45126 27.9166C5.18653 27.831 4.94588 27.6829 4.74932 27.4846C4.55275 27.2863 4.40595 27.0436 4.32111 26.7765C4.23628 26.5095 4.21587 26.2259 4.26158 25.9493C4.30728 25.6727 4.41779 25.4111 4.5839 25.1862C4.75002 24.9614 4.96694 24.7798 5.21664 24.6565ZM23.9082 27.0132L21.6496 22.3782L26.2444 24.6565C26.4941 24.7798 26.711 24.9614 26.8771 25.1862C27.0432 25.4111 27.1538 25.6727 27.1995 25.9493C27.2452 26.2259 27.2248 26.5095 27.1399 26.7765C27.0551 27.0436 26.9083 27.2863 26.7117 27.4846C26.5152 27.6829 26.2745 27.831 26.0098 27.9166C25.745 28.0021 25.4639 28.0227 25.1897 27.9766C24.9155 27.9305 24.6562 27.819 24.4333 27.6515C24.2104 27.4839 24.0303 27.2651 23.9082 27.0132ZM26.2427 8.15486L21.6463 10.4349L23.9065 5.79819C24.0287 5.54631 24.2087 5.32749 24.4316 5.15992C24.6545 4.99235 24.9138 4.88088 25.188 4.83477C25.4622 4.78867 25.7434 4.80926 26.0081 4.89483C26.2729 4.9804 26.5135 5.12849 26.7101 5.32678C26.9066 5.52506 27.0534 5.76782 27.1383 6.03486C27.2231 6.3019 27.2435 6.58552 27.1978 6.86212C27.1521 7.13872 27.0416 7.40032 26.8755 7.62517C26.7094 7.85001 26.4924 8.03161 26.2427 8.15486ZM15.7313 23.9082C11.6322 23.9082 8.29637 20.5432 8.29637 16.4082C8.29637 12.2732 11.6322 8.90819 15.7313 8.90819C19.8305 8.90819 23.1663 12.2732 23.1663 16.4082C23.1663 20.5432 19.8305 23.9082 15.7313 23.9082ZM15.7313 12.2415C13.4529 12.2415 11.6008 14.1099 11.6008 16.4082C11.6008 18.7065 13.4529 20.5749 15.7313 20.5749C18.0098 20.5749 19.8619 18.7065 19.8619 16.4082C19.8619 14.1099 18.0098 12.2415 15.7313 12.2415Z" fill="url(#paint0_linear_328_104)"/>
<defs>
<linearGradient id="paint0_linear_328_104" x1="15.7313" y1="0.749329" x2="15.7313" y2="32.0671" gradientUnits="userSpaceOnUse">
<stop stop-color="#382915"/>
<stop offset="0.0001" stop-color="#3C6FD1"/>
<stop offset="1" stop-color="#7CA9FF"/>
</linearGradient>
</defs>
</svg>
