<svg width="32" height="35" viewBox="0 0 32 35" fill="none" xmlns="http://www.w3.org/2000/svg">
<path d="M1.94396 14.0749C1.50577 14.0749 1.08552 13.8993 0.775671 13.5867C0.46582 13.2742 0.291748 12.8502 0.291748 12.4082C0.291748 11.9662 0.46582 11.5423 0.775671 11.2297C1.08552 10.9171 1.50577 10.7415 1.94396 10.7415H15.1617C16.0381 10.7415 16.8786 10.3904 17.4983 9.76524C18.118 9.14011 18.4661 8.29227 18.4661 7.40821C18.4661 6.52416 18.118 5.67631 17.4983 5.05119C16.8786 4.42607 16.0381 4.07488 15.1617 4.07488C14.253 4.07488 13.4269 4.44155 12.8321 5.05821C12.6817 5.22008 12.5 5.34911 12.2982 5.43732C12.0965 5.52553 11.8789 5.57104 11.659 5.57104C11.4391 5.57104 11.2215 5.52553 11.0197 5.43732C10.818 5.34911 10.6363 5.22008 10.4859 5.05821C9.84155 4.40821 9.84155 3.34155 10.4859 2.69155C11.692 1.49155 13.3443 0.741547 15.1617 0.741547C16.9145 0.741547 18.5955 1.44393 19.8349 2.69417C21.0743 3.94441 21.7706 5.6401 21.7706 7.40821C21.7706 9.17632 21.0743 10.872 19.8349 12.1223C18.5955 13.3725 16.9145 14.0749 15.1617 14.0749H1.94396ZM26.7272 17.4082C27.1654 17.4082 27.5856 17.2326 27.8955 16.9201C28.2053 16.6075 28.3794 16.1836 28.3794 15.7415C28.3794 15.2995 28.2053 14.8756 27.8955 14.563C27.5856 14.2505 27.1654 14.0749 26.7272 14.0749C26.2646 14.0749 25.8515 14.2582 25.5541 14.5582C25.4013 14.7127 25.2197 14.8353 25.0198 14.9189C24.82 15.0026 24.6057 15.0456 24.3893 15.0456C24.1729 15.0456 23.9587 15.0026 23.7588 14.9189C23.5589 14.8353 23.3774 14.7127 23.2245 14.5582C22.5967 13.9082 22.5967 12.8582 23.2245 12.2082C24.1167 11.3082 25.3559 10.7415 26.7272 10.7415C28.0418 10.7415 29.3025 11.2683 30.2321 12.206C31.1616 13.1437 31.6838 14.4155 31.6838 15.7415C31.6838 17.0676 31.1616 18.3394 30.2321 19.2771C29.3025 20.2148 28.0418 20.7415 26.7272 20.7415H3.59618C3.15798 20.7415 2.73774 20.566 2.42789 20.2534C2.11804 19.9408 1.94396 19.5169 1.94396 19.0749C1.94396 18.6329 2.11804 18.2089 2.42789 17.8964C2.73774 17.5838 3.15798 17.4082 3.59618 17.4082H26.7272ZM25.075 27.4082H1.94396C1.50577 27.4082 1.08552 27.2326 0.775671 26.9201C0.46582 26.6075 0.291748 26.1836 0.291748 25.7415C0.291748 25.2995 0.46582 24.8756 0.775671 24.563C1.08552 24.2505 1.50577 24.0749 1.94396 24.0749H25.075C26.3896 24.0749 27.6503 24.6017 28.5799 25.5393C29.5094 26.477 30.0316 27.7488 30.0316 29.0749C30.0316 30.401 29.5094 31.6727 28.5799 32.6104C27.6503 33.5481 26.3896 34.0749 25.075 34.0749C23.7036 34.0749 22.4645 33.5082 21.5723 32.6082C20.9444 31.9582 20.9444 30.9082 21.5723 30.2582C21.7251 30.1037 21.9067 29.9811 22.1066 29.8975C22.3064 29.8139 22.5207 29.7708 22.7371 29.7708C22.9535 29.7708 23.1678 29.8139 23.3676 29.8975C23.5675 29.9811 23.7491 30.1037 23.9019 30.2582C24.1993 30.5582 24.6124 30.7415 25.075 30.7415C25.5132 30.7415 25.9334 30.566 26.2433 30.2534C26.5531 29.9408 26.7272 29.5169 26.7272 29.0749C26.7272 28.6329 26.5531 28.2089 26.2433 27.8964C25.9334 27.5838 25.5132 27.4082 25.075 27.4082Z" fill="url(#paint0_linear_328_114)"/>
<defs>
<linearGradient id="paint0_linear_328_114" x1="15.9878" y1="0.741547" x2="15.9878" y2="34.0749" gradientUnits="userSpaceOnUse">
<stop stop-color="#382915"/>
<stop offset="0.0001" stop-color="#3C6FD1"/>
<stop offset="1" stop-color="#7CA9FF"/>
</linearGradient>
</defs>
</svg>
